<svg xmlns="http://www.w3.org/2000/svg" viewBox="0 0 816 200" role="img" aria-label="Double R Farms">
  <title>Double R Farms</title>
  <g transform="translate(0 0)">
  <g>
    <!-- vine + leaf -->
    <path d="M104 44 C 124 26, 150 30, 156 48" fill="none" stroke="#5b7a32" stroke-width="5" stroke-linecap="round"/>
    <path d="M150 46 c 8 -3 14 2 12 9 c -2 6 -9 7 -12 3" fill="none" stroke="#5b7a32" stroke-width="4" stroke-linecap="round"/>
    <path d="M58 40 C 70 18, 100 18, 104 40 C 88 34, 72 34, 58 40 Z" fill="#5b7a32"/>
    <path d="M62 38 C 76 30, 92 30, 102 38" fill="none" stroke="#46612a" stroke-width="2"/>
    <!-- stem -->
    <path d="M92 58 C 92 44, 96 34, 106 26 L 114 34 C 106 40, 104 48, 106 58 Z" fill="#6b4a2b"/>
    <!-- pumpkin body -->
    <g stroke="#3a2a1c" stroke-width="5" stroke-linejoin="round">
      <ellipse cx="54" cy="118" rx="44" ry="62" fill="#b9501a"/>
      <ellipse cx="146" cy="118" rx="44" ry="62" fill="#b9501a"/>
      <ellipse cx="72" cy="118" rx="42" ry="66" fill="#d9651c"/>
      <ellipse cx="128" cy="118" rx="42" ry="66" fill="#d9651c"/>
      <ellipse cx="100" cy="118" rx="40" ry="68" fill="#ec8a35"/>
    </g>
    <!-- double R -->
    <path d="M101 108.2Q101 112.4 99.1 115.7Q97.1 119.1 93.6 121.4Q90 123.7 85 124.5Q84 124.7 83 124.8Q82 125 80.9 125.0Q79.9 125 78.7 125Q75 125 72.6 124.6Q70.2 124.2 68.5 123.3Q66.8 122.5 65.3 121.4L65.8 120.6Q67.1 121.6 68.4 122.3Q69.7 123 71.1 123.3Q72.5 123.6 74.3 123.6Q78.9 123.6 81.7 120.2Q84.5 116.9 84.5 109.2Q84.5 103.1 82.6 98.4Q80.6 93.6 77.4 90.9Q74.2 88.2 70.5 88.2H68.2V142.8Q68.2 143.7 68.6 144.2Q69.1 144.7 70 144.8L72.6 145.3Q73 145.3 73.1 145.4Q73.3 145.5 73.3 145.7Q73.3 146.0 72.8 146.0H47.1Q46.9 146.0 46.8 145.9Q46.7 145.8 46.7 145.7Q46.7 145.4 47.3 145.3L49.9 144.8Q50.9 144.7 51.3 144.2Q51.8 143.7 51.8 142.8V89.6Q51.8 89.1 51.3 88.8Q50.8 88.5 49.9 88.4L47.3 87.9Q46.7 87.8 46.7 87.5Q46.7 87.4 46.8 87.3Q46.9 87.2 47.1 87.2H70.4Q79.8 87.2 86.7 89.8Q93.6 92.4 97.3 97Q101 101.7 101 108.2ZM73.5 124.1 88.7 122.4 100.6 142.9Q101.2 143.9 101.9 144.5Q102.6 145 103.6 145.3Q103.9 145.4 104.1 145.5Q104.2 145.5 104.2 145.7Q104.2 145.8 104.1 145.9Q104 146.0 103.7 146.0H80.8Q80.3 146.0 80.3 145.7Q80.3 145.5 80.4 145.5Q80.6 145.5 80.9 145.3L82.1 144.9Q83.2 144.4 83.6 143.9Q84 143.3 83.2 141.8Z" fill="#fffaf0" stroke="#3a2a1c" stroke-width="3" paint-order="stroke"/>
    <path d="M145 122.2Q145 126.4 143.1 129.7Q141.1 133.1 137.6 135.4Q134 137.7 129 138.5Q128 138.7 127 138.8Q126 139 124.9 139.0Q123.9 139 122.7 139Q119 139 116.6 138.6Q114.2 138.2 112.5 137.3Q110.8 136.5 109.3 135.4L109.8 134.6Q111.1 135.6 112.4 136.3Q113.7 137 115.1 137.3Q116.5 137.6 118.3 137.6Q122.9 137.6 125.7 134.2Q128.5 130.9 128.5 123.2Q128.5 117.1 126.6 112.4Q124.6 107.6 121.4 104.9Q118.2 102.2 114.5 102.2H112.2V156.8Q112.2 157.7 112.6 158.2Q113.1 158.7 114 158.8L116.6 159.3Q117 159.3 117.1 159.4Q117.3 159.5 117.3 159.7Q117.3 160.0 116.8 160.0H91.2Q90.9 160.0 90.8 159.9Q90.7 159.8 90.7 159.7Q90.7 159.4 91.3 159.3L93.9 158.8Q94.9 158.7 95.3 158.2Q95.8 157.7 95.8 156.8V103.6Q95.8 103.1 95.3 102.8Q94.8 102.5 93.9 102.4L91.3 101.9Q90.7 101.8 90.7 101.5Q90.7 101.4 90.8 101.3Q90.9 101.2 91.2 101.2H114.4Q123.8 101.2 130.7 103.8Q137.6 106.4 141.3 111Q145 115.7 145 122.2ZM117.5 138.1 132.7 136.4 144.6 156.9Q145.2 157.9 145.9 158.5Q146.6 159 147.6 159.3Q147.9 159.4 148.1 159.5Q148.2 159.5 148.2 159.7Q148.2 159.8 148.1 159.9Q148 160.0 147.7 160.0H124.8Q124.3 160.0 124.3 159.7Q124.3 159.5 124.4 159.5Q124.6 159.5 124.9 159.3L126.1 158.9Q127.2 158.4 127.6 157.9Q128 157.3 127.2 155.8Z" fill="#f6c453" stroke="#3a2a1c" stroke-width="5" paint-order="stroke" stroke-linejoin="round"/>
  </g></g>
  <path d="M224.5 117.7Q224.5 117.4 225 117.3L227.7 116.9Q228.5 116.8 228.9 116.5Q229.2 116.2 229.2 115.7V65.8Q229.2 65.2 228.8 64.9Q228.5 64.6 227.7 64.5L224.9 64Q224.5 64 224.5 63.7Q224.5 63.5 224.6 63.5Q224.7 63.4 224.9 63.4H246.3Q253.3 63.4 259.1 65.4Q265 67.4 269.3 71.3Q273.6 75.3 276 81Q278.4 86.8 278.4 94.3Q278.4 101.9 274.8 107.1Q271.3 112.4 264.8 115.2Q258.3 118.0 249.4 118.0H224.9Q224.7 118.0 224.6 117.9Q224.5 117.8 224.5 117.7ZM249.4 117.1Q253.1 117.1 256 114.7Q259 112.3 260.7 107Q262.4 101.7 262.4 92.8Q262.4 85.7 261.2 80.3Q260.1 75 257.9 71.4Q255.8 67.9 252.8 66.1Q249.9 64.3 246.3 64.3H244.5V115.7Q244.5 116.4 244.9 116.7Q245.3 117.1 246.1 117.1Z M300.7 82.5Q306.1 82.5 310.3 84.8Q314.5 87.1 316.9 91.2Q319.3 95.4 319.3 100.8Q319.3 106.1 316.8 110.1Q314.3 114.2 310 116.5Q305.7 118.8 300.1 118.8Q294.6 118.8 290.4 116.5Q286.2 114.2 283.8 110.2Q281.4 106.1 281.4 100.8Q281.4 95.5 283.9 91.3Q286.4 87.2 290.8 84.8Q295.1 82.5 300.7 82.5ZM302.8 118Q304.4 117.8 305.3 115.8Q306.2 113.8 306.3 109.8Q306.4 105.9 305.6 100Q304.8 94.1 303.7 90.3Q302.6 86.5 301.2 84.8Q299.7 83.1 298.1 83.3Q296.4 83.5 295.5 85.6Q294.6 87.6 294.5 91.5Q294.5 95.4 295.2 101.3Q296.1 107.2 297.2 111Q298.3 114.8 299.7 116.5Q301.1 118.2 302.8 118Z M346.7 117.1V111.4V111.2V87.8Q346.7 87.5 346.5 87.3Q346.4 87.2 346.1 87.2H344.3Q344 87.2 343.9 87.1Q343.8 87 343.8 86.9Q343.8 86.7 344 86.6Q344.1 86.6 344.2 86.5L358.1 82.7Q358.5 82.5 358.7 82.5Q358.9 82.5 359.1 82.5Q359.4 82.5 359.5 82.6Q359.6 82.8 359.6 83V115.6Q359.6 116.2 359.8 116.5Q360 116.9 360.5 117L362.2 117.4Q362.4 117.4 362.5 117.5Q362.6 117.6 362.6 117.7Q362.6 117.8 362.5 117.9Q362.4 118.0 362.2 118.0H347.6Q347.2 118.0 346.9 117.7Q346.7 117.5 346.7 117.1ZM324.3 109.3V87.8Q324.3 87.5 324.2 87.3Q324 87.2 323.7 87.2H321.9Q321.7 87.2 321.6 87.1Q321.5 87 321.5 86.9Q321.5 86.7 321.6 86.6Q321.7 86.6 321.9 86.5L335.8 82.7Q336.2 82.5 336.4 82.5Q336.5 82.5 336.7 82.5Q337 82.5 337.1 82.6Q337.2 82.8 337.2 83V108Q337.2 110.6 338.3 111.9Q339.4 113.1 341.4 113.1Q342.7 113.1 344 112.6Q345.4 112 346.5 111L347.9 109.8L348.4 110.3L346.9 111.6Q342.6 115.4 339.1 117.1Q335.5 118.7 332.6 118.7Q329 118.7 326.7 116.5Q324.3 114.3 324.3 109.3Z M379.8 59.9V115.9L368.2 118.5Q368.1 118.5 367.8 118.6Q367.6 118.7 367.4 118.7Q367.2 118.7 367 118.5Q366.9 118.4 366.9 118.2V64.6Q366.9 64.4 366.7 64.2Q366.6 64.1 366.3 64.1H364.5Q364.2 64.1 364.1 64Q364 63.9 364 63.8Q364 63.6 364.2 63.5Q364.3 63.4 364.4 63.4L378.3 59.5Q378.7 59.4 378.9 59.4Q379.1 59.3 379.3 59.3Q379.6 59.3 379.7 59.5Q379.8 59.7 379.8 59.9ZM379 89.2 378.4 88.5Q380.8 85.4 383.4 83.9Q386 82.5 389.3 82.5Q393.8 82.5 397.1 84.5Q400.4 86.5 402.2 90.3Q404.1 94.1 404.1 99.5Q404.1 105.3 401.9 109.6Q399.8 114 396 116.4Q392.2 118.8 387.3 118.8Q383.7 118.8 381.5 117.6Q379.4 116.4 378 114L379 113.6Q379.8 115.3 381 116.2Q382.2 117.1 384 117.1Q386 117.1 387.6 115.7Q389.2 114.3 390 110.7Q390.9 107 390.9 100.6Q390.9 94.8 390.2 91.4Q389.5 88 388.2 86.5Q386.9 85 385.1 85Q383.5 85 381.9 86Q380.3 87 379 89.2Z M423 59.9V115.6Q423 116.2 423.2 116.5Q423.4 116.9 423.9 117L425.5 117.4Q425.8 117.4 425.9 117.5Q426 117.6 426 117.7Q426 117.8 425.9 117.9Q425.8 118.0 425.6 118.0H407.4Q407.2 118.0 407.1 117.9Q407 117.8 407 117.7Q407 117.6 407.1 117.5Q407.2 117.4 407.5 117.3L409.1 117Q409.7 116.9 409.9 116.5Q410.1 116.2 410.1 115.6V64.6Q410.1 64.4 409.9 64.2Q409.7 64.1 409.4 64.1H407.6Q407.4 64.1 407.3 64Q407.2 63.9 407.2 63.8Q407.2 63.6 407.3 63.5Q407.4 63.4 407.6 63.4L421.5 59.5Q421.9 59.4 422.1 59.4Q422.3 59.3 422.5 59.3Q422.7 59.3 422.9 59.5Q423 59.7 423 59.9Z M462.4 98.5Q462.4 98.8 462.1 99.1Q461.9 99.4 461.3 99.4H437V98.5H448.9Q449.6 98.5 449.6 97.6Q449.6 90 448.1 86.6Q446.5 83.3 444.7 83.3Q443.4 83.3 442.3 84.5Q441.3 85.7 440.6 88.5Q440 91.3 440 96.1Q440 104.2 443.2 107.9Q446.5 111.7 451.9 111.7Q456.2 111.7 458.9 109.5Q461.6 107.3 461.7 103.6Q461.7 103.5 461.8 103.4Q461.9 103.3 461.9 103.3Q462 103.3 462.1 103.4Q462.2 103.5 462.2 103.7Q462.2 108 460 111.4Q457.8 114.8 454.1 116.8Q450.3 118.8 445.7 118.8Q440.5 118.8 436.5 116.6Q432.5 114.3 430.2 110.3Q428 106.3 428 101.2Q428 95.4 430.2 91.2Q432.5 87 436.6 84.7Q440.7 82.4 446.3 82.4Q451.2 82.4 454.8 84.5Q458.5 86.6 460.4 90.3Q462.4 93.9 462.4 98.5Z M528.4 82.9Q528.4 86.8 526.6 89.9Q524.8 93 521.5 95.1Q518.2 97.3 513.5 98.1Q512.6 98.2 511.7 98.3Q510.7 98.5 509.7 98.5Q508.8 98.5 507.7 98.5Q504.2 98.5 502 98.1Q499.8 97.7 498.2 97Q496.7 96.2 495.3 95.1L495.7 94.4Q497 95.4 498.1 96Q499.3 96.6 500.6 96.9Q501.9 97.2 503.6 97.2Q507.9 97.2 510.5 94.1Q513.1 90.9 513.1 83.8Q513.1 78.2 511.3 73.8Q509.5 69.3 506.5 66.8Q503.5 64.3 500 64.3H497.9V115Q497.9 115.9 498.3 116.3Q498.7 116.8 499.6 116.9L502.1 117.3Q502.4 117.4 502.5 117.5Q502.6 117.5 502.6 117.7Q502.6 118.0 502.2 118.0H478.4Q478.2 118.0 478.1 117.9Q478 117.8 478 117.7Q478 117.5 478.5 117.3L481 116.9Q481.9 116.8 482.3 116.3Q482.7 115.9 482.7 115V65.6Q482.7 65.2 482.2 64.9Q481.8 64.6 481 64.5L478.5 64.1Q478 63.9 478 63.7Q478 63.6 478.1 63.5Q478.2 63.4 478.4 63.4H500Q508.7 63.4 515.1 65.8Q521.5 68.2 524.9 72.5Q528.4 76.9 528.4 82.9ZM502.9 97.7 517 96.1 528 115.1Q528.6 116.1 529.2 116.6Q529.9 117.1 530.8 117.3Q531.1 117.5 531.2 117.5Q531.3 117.5 531.3 117.7Q531.3 117.8 531.3 117.9Q531.2 118.0 530.9 118.0H509.6Q509.2 118.0 509.2 117.7Q509.2 117.5 509.3 117.5Q509.4 117.5 509.7 117.3L510.8 116.9Q511.9 116.6 512.3 116Q512.6 115.5 511.8 114.1Z M579.8 63.4Q580.8 63.4 581.6 63.2Q582.4 62.9 582.9 62.7Q583.5 62.5 583.6 62.5Q583.7 62.5 583.8 62.7Q583.9 62.8 584 63.4L587.7 79.1Q587.8 79.4 587.7 79.6Q587.7 79.7 587.6 79.7Q587.5 79.8 587.4 79.7Q587.2 79.7 587 79.5Q583.3 73.7 580.2 70.4Q577.2 67.1 574.4 65.7Q571.7 64.3 568.8 64.3H565.6V115.8Q565.6 116.2 566 116.5Q566.5 116.8 567.3 116.9L571.6 117.3Q571.9 117.4 572.1 117.5Q572.2 117.5 572.2 117.7Q572.2 117.8 572.1 117.9Q572 118.0 571.8 118.0H546Q545.8 118.0 545.7 117.9Q545.6 117.8 545.6 117.7Q545.6 117.5 546.2 117.3L548.6 116.9Q549.4 116.8 549.9 116.5Q550.3 116.2 550.3 115.8V65.6Q550.3 65.2 549.9 64.9Q549.4 64.6 548.6 64.5L546.2 64.1Q545.6 63.9 545.6 63.7Q545.6 63.6 545.7 63.5Q545.8 63.4 546 63.4ZM562.2 89.8H570.1Q574 89.8 576 88.2Q578 86.6 578.7 82.2Q578.8 81.9 578.9 81.8Q579 81.7 579 81.7Q579.4 81.7 579.5 82.2L582.6 97.2Q582.7 97.4 582.7 97.6Q582.6 97.7 582.5 97.8Q582.4 97.8 582.3 97.8Q582.1 97.8 581.9 97.6Q579.8 94.9 578.2 93.4Q576.6 91.9 575 91.3Q573.4 90.7 571.2 90.7H562.2Z M608.9 114.4V113.9L608.2 114.5V86.8Q608.2 85.1 607.4 84.1Q606.6 83.1 605.3 83.1Q603.6 83.1 602.7 84Q601.9 85 601.9 86.4V90.3Q601.9 92.7 600 94.5Q598.2 96.4 595.3 96.4Q593.3 96.4 592 95.2Q590.7 94.1 590.7 91.7Q590.7 89.6 592.5 87.5Q594.3 85.3 597.9 83.9Q601.5 82.4 606.9 82.4Q614.1 82.4 617.6 85.3Q621.2 88.1 621.2 93.4V112.9Q621.2 114 621.6 114.5Q622.1 115 622.7 115Q623.3 115 623.9 114.5Q624.4 114.1 624.6 113Q624.6 112.8 624.7 112.7Q624.7 112.7 624.8 112.7Q624.9 112.7 625 112.7Q625 112.8 625 113Q625 113.8 624.2 115.2Q623.3 116.6 621.3 117.7Q619.4 118.8 616 118.8Q612.2 118.8 610.5 117.5Q608.9 116.2 608.9 114.4ZM588.6 110.2Q588.6 105.6 592.4 103Q596.2 100.4 605 100.4Q607 100.4 608.1 100.8Q609.2 101.2 610.2 101.8L609.8 102.1Q608.8 101.5 607.8 101.3Q606.9 101.1 605.6 101.1Q603.6 101.1 602.5 102.9Q601.3 104.7 601.3 108.4Q601.3 112 602.5 113.6Q603.7 115.2 605.5 115.2Q606.5 115.2 607.7 114.5Q608.8 113.8 609.4 112.7L609.9 113Q608.3 115.8 605.3 117.3Q602.3 118.8 598.8 118.8Q594.4 118.8 591.5 116.4Q588.6 114 588.6 110.2Z M642.1 97.3Q642.1 92.4 643.7 89.1Q645.2 85.8 647.6 84.1Q650 82.5 652.6 82.5Q655.7 82.5 657.4 84.5Q659 86.5 659 90.6Q659 94.4 657.2 96.3Q655.3 98.2 652.6 98.2Q650 98.2 648.9 96.8Q647.7 95.4 647.5 92.8L647.5 91.4Q647.5 90.4 647.1 89.9Q646.7 89.3 645.9 89.3Q645 89.3 644.3 90.2Q643.6 91.1 643.1 92.9Q642.7 94.8 642.7 97.7ZM642.7 83.3V95.5V115.2Q642.7 115.7 643 116.1Q643.3 116.6 643.7 116.7L647.6 117.4Q647.8 117.5 647.9 117.5Q648 117.6 648 117.7Q648 117.8 647.8 117.9Q647.7 118.0 647.5 118.0H627.2Q627 118.0 626.9 117.9Q626.8 117.8 626.8 117.7Q626.8 117.6 626.9 117.5Q627.1 117.4 627.3 117.3L628.9 117Q629.4 116.9 629.6 116.6Q629.8 116.2 629.8 115.8V87.4Q629.8 87.1 629.7 86.9Q629.6 86.7 629.2 86.7H627.3Q627.1 86.7 627 86.6Q626.9 86.5 626.9 86.4Q626.9 86.3 627 86.2Q627.1 86.1 627.4 86L641.3 82.9Q641.6 82.8 641.8 82.7Q642 82.7 642.2 82.7Q642.5 82.7 642.6 82.9Q642.7 83.1 642.7 83.3Z M676.5 82.9V115.7Q676.5 116.2 676.7 116.6Q677 116.9 677.5 117.1L679.1 117.4Q679.5 117.5 679.5 117.7Q679.5 118.0 679.1 118.0H660.9Q660.7 118.0 660.6 117.9Q660.5 117.8 660.5 117.7Q660.5 117.6 660.7 117.5Q660.8 117.4 661 117.3L662.6 117Q663.2 116.9 663.4 116.6Q663.6 116.2 663.6 115.8V87.8Q663.6 87.5 663.4 87.3Q663.3 87.1 663 87.1H661Q660.9 87.1 660.8 87Q660.6 86.9 660.6 86.8Q660.6 86.6 660.8 86.5Q660.9 86.4 661.1 86.4L675 82.5Q675.3 82.4 675.6 82.4Q675.8 82.4 676 82.4Q676.3 82.4 676.4 82.5Q676.5 82.7 676.5 82.9ZM675.5 91.5 674.9 91.1 676.4 89.7Q680.6 85.7 684.2 84.1Q687.7 82.5 690.6 82.5Q694.2 82.5 696.5 84.7Q698.8 86.9 698.8 91.9V116Q698.8 116.5 699 116.8Q699.2 117 699.6 117.1L700.6 117.3Q701.1 117.5 701.1 117.7Q701.1 118.0 700.5 118.0H683.6Q683.3 118.0 683.3 117.7Q683.3 117.5 683.6 117.4L684.9 117.1Q685.6 116.9 685.8 116.5Q686.1 116 686.1 115.3V93.3Q686.1 90.9 684.9 89.5Q683.7 88.1 681.8 88.1Q680.3 88.1 679.1 88.6Q677.9 89.1 676.9 90.2ZM697.8 91.5 697.3 91.1 698.5 89.5Q701.2 86 704.3 84.2Q707.3 82.5 710.5 82.5Q714 82.5 716.5 84.7Q718.9 86.9 719.5 91.9L722.2 115.9Q722.3 116.5 722.5 116.8Q722.8 117.1 723.2 117.2L724.2 117.4Q724.4 117.5 724.4 117.5Q724.5 117.6 724.5 117.7Q724.5 117.8 724.4 117.9Q724.4 118.0 724.2 118.0H706.4Q706.1 118.0 706.1 117.7Q706.1 117.5 706.5 117.4L707.7 117.1Q708.4 116.9 708.7 116.4Q709 115.9 708.9 115.1L706.8 93.3Q706.6 90.9 705.5 89.5Q704.4 88.1 702.5 88.1Q701.5 88.1 700.6 88.6Q699.7 89.1 698.9 90Z M741.2 117.8Q743.4 117.8 744.7 116.6Q746 115.5 746 113.7Q746 112.3 745.3 111.2Q744.7 110.1 743.1 109.1Q741.6 108.1 738.8 107.2Q733.8 105.5 730.9 103.5Q728.1 101.5 727 99Q725.8 96.5 725.8 93.5Q725.8 88.1 729.4 85.3Q733 82.4 739.1 82.4Q741.5 82.4 743.1 82.9Q744.6 83.3 745.5 83.8Q746.3 84.2 746.6 84.2Q747 84.2 748.3 83.8Q749.5 83.3 750.7 82.9Q751.9 82.4 752.3 82.4Q752.5 82.4 752.7 82.5Q752.9 82.6 752.9 82.9L754.7 95.1Q754.7 95.4 754.7 95.7Q754.6 95.9 754.5 96Q754.4 96 754.3 95.9Q754.2 95.9 754 95.7Q751.3 91 748.9 88.3Q746.6 85.6 744.4 84.4Q742.1 83.3 739.6 83.3Q737.2 83.3 736 84.5Q734.8 85.7 734.8 87.8Q734.8 89.3 735.5 90.5Q736.2 91.7 738 92.7Q739.9 93.8 743.3 94.7Q747.7 96 750.3 97.9Q752.9 99.7 754 102.1Q755.2 104.5 755.2 107.4Q755.2 110.9 753.4 113.5Q751.7 116 748.8 117.4Q745.8 118.8 742.3 118.8Q740.1 118.8 738.5 118.2Q737 117.6 736 117.1Q735 116.5 734.9 116.5Q734.5 116.5 733.4 117Q732.3 117.5 731.1 118Q729.9 118.5 729.5 118.5Q729.3 118.5 729 118.3Q728.8 118.1 728.7 117.5L727.3 107.5Q727.2 107 727.3 106.7Q727.4 106.5 727.5 106.4Q727.6 106.3 727.7 106.4Q727.8 106.5 727.9 106.7Q731.6 112.6 734.8 115.2Q738 117.8 741.2 117.8Z" fill="#3a2a1c"/>
  <path d="M232.9 147.5Q234.3 147.5 235.4 147.9Q236.4 148.4 237 149.3Q237.5 150.2 237.5 151.5Q237.5 152.8 237 153.7Q236.4 154.6 235.4 155.1Q234.3 155.6 232.9 155.6H230.3V160.0H227.6V147.5ZM232.5 153.5Q233.7 153.5 234.3 153Q234.9 152.5 234.9 151.5Q234.9 150.5 234.3 150Q233.7 149.5 232.5 149.5H230.3V153.5Z M253.6 147.5V155.1Q253.6 157.6 252.2 158.9Q250.8 160.2 248.2 160.2Q245.6 160.2 244.2 158.9Q242.9 157.6 242.9 155.1V147.5H245.5V154.9Q245.5 156.5 246.2 157.3Q246.8 158 248.2 158Q249.6 158 250.3 157.3Q250.9 156.5 250.9 154.9V147.5Z M273.4 147.5V160.0H271.1V153.5L271.2 149.8H271.2L267.7 160.0H265.5L262.1 149.8H262L262.2 153.5V160.0H259.8V147.5H263.6L265.9 154.3L266.7 157.1H266.7L267.5 154.3L269.8 147.5Z M285.2 147.5Q286.6 147.5 287.6 147.9Q288.7 148.4 289.2 149.3Q289.8 150.2 289.8 151.5Q289.8 152.8 289.2 153.7Q288.7 154.6 287.6 155.1Q286.6 155.6 285.2 155.6H282.5V160.0H279.9V147.5ZM284.8 153.5Q285.9 153.5 286.5 153Q287.1 152.5 287.1 151.5Q287.1 150.5 286.5 150Q285.9 149.5 284.8 149.5H282.5V153.5Z M306.2 147.5 300.5 154 300.2 153.8 297.1 157.3 296.7 154.9 303.2 147.5ZM298 147.5V160.0H295.4V147.5ZM301.2 151.8 306.3 160.0H303.3L299.2 153.3Z M314.1 147.5V160.0H311.5V147.5Z M331.3 147.5V160.0H328.3L324 152.6L322.9 150.6H322.9L322.9 152.7V160.0H320.6V147.5H323.6L327.9 154.8L329 156.9H329.1L329 154.7V147.5Z M352.1 147.5Q353.5 147.5 354.6 147.9Q355.6 148.4 356.1 149.3Q356.7 150.2 356.7 151.5Q356.7 152.8 356.1 153.7Q355.6 154.6 354.6 155.1Q353.5 155.6 352.1 155.6H349.4V160.0H346.8V147.5ZM351.7 153.5Q352.9 153.5 353.5 153Q354 152.5 354 151.5Q354 150.5 353.5 150Q352.9 149.5 351.7 149.5H349.4V153.5Z M373.2 160.0H370.5L369.4 156.9H364.6L363.6 160.0H360.9L365.5 147.5H368.6ZM365.2 155H368.8L367 149.5Z M388.2 147.5V149.6H384V160.0H381.3V149.6H377.1V147.5Z M404.3 156.5Q403.9 157.8 403.1 158.6Q402.3 159.4 401.3 159.8Q400.2 160.2 398.9 160.2Q397.1 160.2 395.7 159.4Q394.4 158.6 393.6 157.2Q392.9 155.7 392.9 153.7Q392.9 151.7 393.6 150.3Q394.4 148.8 395.7 148Q397.1 147.3 398.9 147.3Q400.2 147.3 401.2 147.6Q402.3 148 403 148.7Q403.7 149.4 404.1 150.5L401.7 151.5Q401.4 150.4 400.7 149.9Q400.1 149.4 399 149.4Q398 149.4 397.2 149.9Q396.4 150.4 396 151.4Q395.6 152.3 395.6 153.7Q395.6 155.1 396 156.1Q396.4 157.1 397.1 157.5Q397.9 158 399 158Q400 158 400.8 157.5Q401.5 156.9 401.8 155.8Z M420.5 147.5V160.0H417.8V147.5ZM412.3 147.5V160.0H409.7V147.5ZM419.2 152.6V154.7H411V152.6Z M439.2 160.2Q437.9 160.2 437 159.8Q436 159.4 435.5 158.6Q435 157.8 435 156.8Q435 156.2 435.1 155.6Q435.3 155.1 435.7 154.6Q436 154.1 436.7 153.7Q437.4 153.3 438.4 153L439.1 152.7Q439.9 152.3 440.3 151.9Q440.8 151.5 441 151.2Q441.2 150.8 441.2 150.3Q441.2 149.7 440.8 149.4Q440.5 149.1 439.9 149.1Q439.3 149.1 439 149.5Q438.6 149.8 438.6 150.4Q438.6 150.7 438.7 151Q438.8 151.3 439.1 151.8Q439.4 152.2 440 152.9Q440.6 153.7 441.6 154.8Q442.7 156 443.3 156.7Q444 157.4 444.5 157.8Q445 158.1 445.4 158.3Q445.8 158.4 446.4 158.3L446.1 160.2Q445.4 160.2 444.8 160.1Q444.3 159.9 443.7 159.6Q443.1 159.2 442.2 158.4Q441.4 157.6 440.3 156.3Q439.1 155 438.3 154.1Q437.5 153.2 437.1 152.6Q436.7 151.9 436.5 151.4Q436.3 150.9 436.3 150.3Q436.3 149.6 436.7 148.9Q437.1 148.2 437.9 147.7Q438.7 147.3 440 147.3Q441.1 147.3 441.8 147.7Q442.5 148 442.9 148.7Q443.3 149.3 443.3 150.1Q443.3 150.8 443 151.5Q442.6 152.2 441.9 152.8Q441.1 153.3 439.8 153.8L439.2 154.1Q438.5 154.5 438 154.8Q437.6 155.2 437.4 155.6Q437.2 156 437.2 156.6Q437.2 157.1 437.5 157.5Q437.8 157.9 438.4 158.2Q438.9 158.4 439.5 158.4Q440.5 158.4 441.2 158.1Q441.9 157.8 442.5 157.2L442.7 156.9Q443.1 156.2 443.4 155.4Q443.6 154.5 443.6 153.5L445.4 153.5Q445.4 154.8 445.1 155.9Q444.7 157 443.9 157.8L443.5 158.2Q442.8 159.1 441.8 159.7Q440.7 160.2 439.2 160.2Z M471 156.5Q470.7 157.8 469.9 158.6Q469.1 159.4 468 159.8Q467 160.2 465.7 160.2Q463.8 160.2 462.5 159.4Q461.1 158.6 460.4 157.2Q459.7 155.7 459.7 153.7Q459.7 151.7 460.4 150.3Q461.1 148.8 462.5 148Q463.8 147.3 465.7 147.3Q467 147.3 468 147.6Q469 148 469.8 148.7Q470.5 149.4 470.8 150.5L468.5 151.5Q468.1 150.4 467.5 149.9Q466.8 149.4 465.8 149.4Q464.7 149.4 464 149.9Q463.2 150.4 462.8 151.4Q462.4 152.3 462.4 153.7Q462.4 155.1 462.8 156.1Q463.2 157.1 463.9 157.5Q464.7 158 465.8 158Q466.8 158 467.6 157.5Q468.3 156.9 468.6 155.8Z M481.9 147.3Q483.7 147.3 485.1 148Q486.4 148.8 487.2 150.3Q487.9 151.7 487.9 153.7Q487.9 155.7 487.2 157.2Q486.4 158.6 485.1 159.4Q483.7 160.2 481.9 160.2Q480 160.2 478.7 159.4Q477.3 158.6 476.6 157.2Q475.8 155.7 475.8 153.7Q475.8 151.7 476.6 150.3Q477.3 148.8 478.7 148Q480 147.3 481.9 147.3ZM481.9 149.4Q480.8 149.4 480.1 149.9Q479.3 150.4 478.9 151.4Q478.6 152.3 478.6 153.7Q478.6 155.1 478.9 156.1Q479.3 157.1 480.1 157.5Q480.8 158 481.9 158Q482.9 158 483.7 157.5Q484.4 157.1 484.8 156.1Q485.2 155.1 485.2 153.7Q485.2 152.3 484.8 151.4Q484.4 150.4 483.7 149.9Q482.9 149.4 481.9 149.4Z M499.3 147.5Q501.4 147.5 502.6 148.5Q503.8 149.5 503.8 151.2Q503.8 153.1 502.6 154.1Q501.4 155 499.3 155L499 155.2H496.3V160.0H493.7V147.5ZM499 153.2Q500.1 153.2 500.6 152.8Q501.1 152.3 501.1 151.4Q501.1 150.4 500.6 150Q500.1 149.6 499 149.6H496.3V153.2ZM500.5 153.7 504.6 160.0H501.6L498.3 154.5Z M520.6 147.5V160.0H517.6L513.2 152.6L512.2 150.6H512.1L512.2 152.7V160.0H509.9V147.5H512.8L517.2 154.8L518.3 156.9H518.4L518.3 154.7V147.5Z M549.8 147.5V160.0H547.4V153.5L547.5 149.8H547.5L544.0 160.0H541.9L538.4 149.8H538.4L538.5 153.5V160.0H536.1V147.5H539.9L542.2 154.3L543 157.1H543L543.8 154.3L546.1 147.5Z M567.1 160.0H564.4L563.4 156.9H558.5L557.5 160.0H554.8L559.4 147.5H562.5ZM559.1 155H562.8L560.9 149.5Z M573.5 158.8 573 157.9H581.8V160.0H571.4V158L579.5 148.6L579.9 149.6H571.5V147.5H581.6V149.4Z M587.4 160.0V147.5H596.8V149.6H590V152.7H595.4V154.7H590V157.9H597.1V160.0Z M612.5 151.7Q613.2 151.7 613.7 152.2Q614.1 152.6 614.1 153.3Q614.1 154 613.7 154.4Q613.2 154.8 612.5 154.8Q611.7 154.8 611.3 154.4Q610.8 154 610.8 153.3Q610.8 152.6 611.3 152.2Q611.7 151.7 612.5 151.7Z M634 147.5Q635.4 147.5 636.5 147.9Q637.5 148.4 638 149.3Q638.6 150.2 638.6 151.5Q638.6 152.8 638 153.7Q637.5 154.6 636.5 155.1Q635.4 155.6 634 155.6H631.3V160.0H628.7V147.5ZM633.6 153.5Q634.8 153.5 635.4 153Q635.9 152.5 635.9 151.5Q635.9 150.5 635.4 150Q634.8 149.5 633.6 149.5H631.3V153.5Z M654.7 147.5V155.1Q654.7 157.6 653.3 158.9Q651.9 160.2 649.3 160.2Q646.7 160.2 645.3 158.9Q643.9 157.6 643.9 155.1V147.5H646.6V154.9Q646.6 156.5 647.2 157.3Q647.9 158 649.3 158Q650.7 158 651.4 157.3Q652 156.5 652 154.9V147.5Z M671 147.5 666.5 155.3V160.0H663.9V155.3L659.4 147.5H662.2L664.2 151.2L665.2 153.2L666.2 151.2L668.2 147.5Z M686.9 160.0H684.1L683.1 156.9H678.3L677.3 160.0H674.6L679.2 147.5H682.3ZM678.9 155H682.5L680.7 149.5Z M694.5 157.9H701.2V160.0H691.9V147.5H694.5Z M709.2 157.9H715.8V160.0H706.5V147.5H709.2Z M731.6 147.5V155.1Q731.6 157.6 730.3 158.9Q728.9 160.2 726.3 160.2Q723.7 160.2 722.3 158.9Q720.9 157.6 720.9 155.1V147.5H723.5V154.9Q723.5 156.5 724.2 157.3Q724.9 158 726.3 158Q727.7 158 728.3 157.3Q729 156.5 729 154.9V147.5Z M743.1 147.5Q744.6 147.5 745.6 147.9Q746.6 148.4 747.2 149.3Q747.7 150.2 747.7 151.5Q747.7 152.8 747.2 153.7Q746.6 154.6 745.6 155.1Q744.6 155.6 743.1 155.6H740.5V160.0H737.9V147.5ZM742.7 153.5Q743.9 153.5 744.5 153Q745.1 152.5 745.1 151.5Q745.1 150.5 744.5 150Q743.9 149.5 742.7 149.5H740.5V153.5Z M754.3 157.1Q754.9 157.1 755.3 157.4Q755.7 157.7 756 158.2Q756.2 158.7 756.2 159.2Q756.2 160 755.8 160.7Q755.5 161.5 755 162Q754.4 162.6 753.7 162.9L752.6 162Q753.1 161.8 753.5 161.5Q754 161.2 754.3 160.8Q754.6 160.5 754.7 160.1L754.6 160.0Q754.5 160.1 754.4 160.1Q754.3 160.2 754 160.2Q753.7 160.2 753.4 160Q753.1 159.8 752.9 159.5Q752.7 159.2 752.7 158.7Q752.7 158.2 752.9 157.9Q753.1 157.5 753.5 157.3Q753.9 157.1 754.3 157.1Z M773.3 160.0 769.6 147.5H772.4L774.9 157.8L777.4 147.5H779.9L782.4 157.8L784.9 147.5H787.6L783.9 160.0H781L779.2 153.2L778.6 150.2H778.6L778 153.2L776.3 160.0Z M803.7 160.0H800.9L799.9 156.9H795.1L794.1 160.0H791.4L796 147.5H799.1ZM795.7 155H799.3L797.5 149.5Z" fill="#b9501a"/>
</svg>
